<svg width="380" height="65" viewBox="0 0 380 65" fill="none" xmlns="http://www.w3.org/2000/svg">
<g clip-path="url(#clip0_101_7)">
<path d="M7.8125 59V11H24.0313C27.7813 11 30.8594 11.6406 33.2656 12.9219C35.6719 14.1875 37.4531 15.9297 38.6094 18.1484C39.7656 20.3672 40.3438 22.8906 40.3438 25.7187C40.3438 28.5469 39.7656 31.0547 38.6094 33.2422C37.4531 35.4297 35.6797 37.1484 33.2891 38.3984C30.8984 39.6328 27.8438 40.25 24.125 40.25H11V35H23.9375C26.5 35 28.5625 34.625 30.125 33.875C31.7031 33.125 32.8438 32.0625 33.5469 30.6875C34.2656 29.2969 34.625 27.6406 34.625 25.7187C34.625 23.7969 34.2656 22.1172 33.5469 20.6797C32.8281 19.2422 31.6797 18.1328 30.1016 17.3516C28.5234 16.5547 26.4375 16.1562 23.8437 16.1562H13.625V59H7.8125ZM30.4063 37.4375L42.2188 59H35.4688L23.8437 37.4375H30.4063ZM55.8418 11V59H50.0293V11H55.8418ZM69.4648 11L83.7148 51.4062H84.2773L98.5273 11H104.621L86.9961 59H80.9961L63.3711 11H69.4648ZM112.098 59V11H141.066V16.1562H117.91V32.375H139.566V37.5312H117.91V53.8438H141.441V59H112.098ZM210.605 35C210.605 40.0625 209.691 44.4375 207.863 48.125C206.035 51.8125 203.527 54.6562 200.34 56.6563C197.152 58.6562 193.512 59.6562 189.418 59.6562C185.324 59.6562 181.684 58.6562 178.496 56.6563C175.309 54.6562 172.801 51.8125 170.973 48.125C169.145 44.4375 168.23 40.0625 168.23 35C168.23 29.9375 169.145 25.5625 170.973 21.875C172.801 18.1875 175.309 15.3437 178.496 13.3437C181.684 11.3437 185.324 10.3437 189.418 10.3437C193.512 10.3437 197.152 11.3437 200.34 13.3437C203.527 15.3437 206.035 18.1875 207.863 21.875C209.691 25.5625 210.605 29.9375 210.605 35ZM204.98 35C204.98 30.8437 204.285 27.3359 202.895 24.4766C201.52 21.6172 199.652 19.4531 197.293 17.9844C194.949 16.5156 192.324 15.7812 189.418 15.7812C186.512 15.7812 183.879 16.5156 181.52 17.9844C179.176 19.4531 177.309 21.6172 175.918 24.4766C174.543 27.3359 173.855 30.8437 173.855 35C173.855 39.1562 174.543 42.6641 175.918 45.5234C177.309 48.3828 179.176 50.5469 181.52 52.0156C183.879 53.4844 186.512 54.2187 189.418 54.2187C192.324 54.2187 194.949 53.4844 197.293 52.0156C199.652 50.5469 201.52 48.3828 202.895 45.5234C204.285 42.6641 204.98 39.1562 204.98 35ZM220.379 59V11H236.598C240.348 11 243.426 11.6406 245.832 12.9219C248.238 14.1875 250.02 15.9297 251.176 18.1484C252.332 20.3672 252.91 22.8906 252.91 25.7187C252.91 28.5469 252.332 31.0547 251.176 33.2422C250.02 35.4297 248.246 37.1484 245.855 38.3984C243.465 39.6328 240.41 40.25 236.691 40.25H223.566V35H236.504C239.066 35 241.129 34.625 242.691 33.875C244.27 33.125 245.41 32.0625 246.113 30.6875C246.832 29.2969 247.191 27.6406 247.191 25.7187C247.191 23.7969 246.832 22.1172 246.113 20.6797C245.395 19.2422 244.246 18.1328 242.668 17.3516C241.09 16.5547 239.004 16.1562 236.41 16.1562H226.191V59H220.379ZM242.973 37.4375L254.785 59H248.035L236.41 37.4375H242.973ZM295.971 59H281.158V11H296.627C301.283 11 305.268 11.9609 308.58 13.8828C311.893 15.7891 314.432 18.5312 316.197 22.1094C317.963 25.6719 318.846 29.9375 318.846 34.9062C318.846 39.9062 317.955 44.2109 316.174 47.8203C314.393 51.4141 311.799 54.1797 308.393 56.1172C304.986 58.0391 300.846 59 295.971 59ZM286.971 53.8438H295.596C299.564 53.8438 302.854 53.0781 305.463 51.5469C308.072 50.0156 310.018 47.8359 311.299 45.0078C312.58 42.1797 313.221 38.8125 313.221 34.9062C313.221 31.0312 312.588 27.6953 311.322 24.8984C310.057 22.0859 308.166 19.9297 305.65 18.4297C303.135 16.9141 300.002 16.1562 296.252 16.1562H286.971V53.8438ZM334.408 11V59H328.596V11H334.408ZM346.063 59V11H375.031V16.1562H351.875V32.375H373.531V37.5312H351.875V53.8438H375.406V59H346.063Z" fill="black"/>
<path d="M5.8125 56V8H22.0313C25.7813 8 28.8594 8.64062 31.2656 9.92187C33.6719 11.1875 35.4531 12.9297 36.6094 15.1484C37.7656 17.3672 38.3438 19.8906 38.3438 22.7187C38.3438 25.5469 37.7656 28.0547 36.6094 30.2422C35.4531 32.4297 33.6797 34.1484 31.2891 35.3984C28.8984 36.6328 25.8438 37.25 22.125 37.25H9V32H21.9375C24.5 32 26.5625 31.625 28.125 30.875C29.7031 30.125 30.8438 29.0625 31.5469 27.6875C32.2656 26.2969 32.625 24.6406 32.625 22.7187C32.625 20.7969 32.2656 19.1172 31.5469 17.6797C30.8281 16.2422 29.6797 15.1328 28.1016 14.3516C26.5234 13.5547 24.4375 13.1562 21.8437 13.1562H11.625V56H5.8125ZM28.4063 34.4375L40.2188 56H33.4688L21.8437 34.4375H28.4063ZM53.8418 8V56H48.0293V8H53.8418ZM67.4648 8L81.7148 48.4062H82.2773L96.5273 8H102.621L84.9961 56H78.9961L61.3711 8H67.4648ZM110.098 56V8H139.066V13.1562H115.91V29.375H137.566V34.5312H115.91V50.8438H139.441V56H110.098ZM208.605 32C208.605 37.0625 207.691 41.4375 205.863 45.125C204.035 48.8125 201.527 51.6562 198.34 53.6563C195.152 55.6562 191.512 56.6562 187.418 56.6562C183.324 56.6562 179.684 55.6562 176.496 53.6563C173.309 51.6562 170.801 48.8125 168.973 45.125C167.145 41.4375 166.23 37.0625 166.23 32C166.23 26.9375 167.145 22.5625 168.973 18.875C170.801 15.1875 173.309 12.3437 176.496 10.3437C179.684 8.34375 183.324 7.34375 187.418 7.34375C191.512 7.34375 195.152 8.34375 198.34 10.3437C201.527 12.3437 204.035 15.1875 205.863 18.875C207.691 22.5625 208.605 26.9375 208.605 32ZM202.98 32C202.98 27.8437 202.285 24.3359 200.895 21.4766C199.52 18.6172 197.652 16.4531 195.293 14.9844C192.949 13.5156 190.324 12.7812 187.418 12.7812C184.512 12.7812 181.879 13.5156 179.52 14.9844C177.176 16.4531 175.309 18.6172 173.918 21.4766C172.543 24.3359 171.855 27.8437 171.855 32C171.855 36.1562 172.543 39.6641 173.918 42.5234C175.309 45.3828 177.176 47.5469 179.52 49.0156C181.879 50.4844 184.512 51.2187 187.418 51.2187C190.324 51.2187 192.949 50.4844 195.293 49.0156C197.652 47.5469 199.52 45.3828 200.895 42.5234C202.285 39.6641 202.98 36.1562 202.98 32ZM218.379 56V8H234.598C238.348 8 241.426 8.64062 243.832 9.92187C246.238 11.1875 248.02 12.9297 249.176 15.1484C250.332 17.3672 250.91 19.8906 250.91 22.7187C250.91 25.5469 250.332 28.0547 249.176 30.2422C248.02 32.4297 246.246 34.1484 243.855 35.3984C241.465 36.6328 238.41 37.25 234.691 37.25H221.566V32H234.504C237.066 32 239.129 31.625 240.691 30.875C242.27 30.125 243.41 29.0625 244.113 27.6875C244.832 26.2969 245.191 24.6406 245.191 22.7187C245.191 20.7969 244.832 19.1172 244.113 17.6797C243.395 16.2422 242.246 15.1328 240.668 14.3516C239.09 13.5547 237.004 13.1562 234.41 13.1562H224.191V56H218.379ZM240.973 34.4375L252.785 56H246.035L234.41 34.4375H240.973ZM293.971 56H279.158V8H294.627C299.283 8 303.268 8.96094 306.58 10.8828C309.893 12.7891 312.432 15.5312 314.197 19.1094C315.963 22.6719 316.846 26.9375 316.846 31.9062C316.846 36.9062 315.955 41.2109 314.174 44.8203C312.393 48.4141 309.799 51.1797 306.393 53.1172C302.986 55.0391 298.846 56 293.971 56ZM284.971 50.8438H293.596C297.564 50.8438 300.854 50.0781 303.463 48.5469C306.072 47.0156 308.018 44.8359 309.299 42.0078C310.58 39.1797 311.221 35.8125 311.221 31.9062C311.221 28.0312 310.588 24.6953 309.322 21.8984C308.057 19.0859 306.166 16.9297 303.65 15.4297C301.135 13.9141 298.002 13.1562 294.252 13.1562H284.971V50.8438ZM332.408 8V56H326.596V8H332.408ZM344.063 56V8H373.031V13.1562H349.875V29.375H371.531V34.5312H349.875V50.8438H373.406V56H344.063Z" fill="#FF00EE"/>
</g>
<defs>
<clipPath id="clip0_101_7">
<rect width="380" height="65" fill="white"/>
</clipPath>
</defs>
</svg>
